<svg width="41" height="40" fill="none" xmlns="http://www.w3.org/2000/svg"><g clip-path="url(#clip0_20_110)" fill="#698157"><path d="M19.094 1.25c0 .813-.438 1.25-1.25 1.25-1 0-1.25.438-1.25 1.938 0 1.062.312 2.437.687 3.125.563 1.062.313 1.375-1.562 2.125-2.5 1.062-3.5 2.562-3.5 5.25 0 1.5.25 1.937 1.25 1.937 1.062 0 1.25.438 1.25 3.188 0 4.312-1.813 3.75-2.813-.875-.437-2.25-1.5-3.063-7.125-5.75L.22 11.25l.25 5.438c.31 6.312 1.436 9 4.436 10.812 2.188 1.375 5.688 1.625 8.188.625 1.437-.5 1.625-.438 1.625.813 0 1.062-.563 1.625-2.063 2.187-3.25 1.188-6 5.75-3.5 5.75.375 0 1.375-.813 2.25-1.875 1-1.25 2.125-1.875 3.25-1.875 2.375 0 2.688.563 1.25 2.063-.625.687-1.187 2.062-1.187 3.062V40h11.25v-1.75c0-1-.563-2.375-1.188-3.063-1.437-1.5-1.125-2.062 1.25-2.062 1.125 0 2.25.625 3.25 1.875.875 1 1.875 1.875 2.25 1.875 2.5 0-.25-4.563-3.5-5.75-1.5-.563-2.062-1.125-2.062-2.188 0-1.25.187-1.312 1.625-.812 2.5 1 6 .75 8.187-.625 3-1.813 4.125-4.5 4.438-10.813l.25-5.5-5.313 2.626c-5.25 2.624-6.687 4.062-6.687 6.687 0 1.188-1.125 2.625-2 2.625-.25 0-.5-1.438-.5-3.125 0-2.688.187-3.125 1.25-3.125 1 0 1.25-.438 1.25-1.938 0-2.687-1-4.187-3.5-5.25-1.875-.75-2.125-1.062-1.563-2.124.375-.688.688-2.063.688-3.125 0-1.5-.25-1.938-1.25-1.938-.813 0-1.25-.438-1.25-1.25 0-.813-.438-1.25-1.25-1.25-.813 0-1.25.438-1.25 1.25zm2.5 4.688c0 .5-.563.937-1.25.937-.688 0-1.25-.438-1.25-.938 0-.5.562-.937 1.25-.937.687 0 1.25.438 1.25.938zM20.969 10c0 .313-.25.625-.625.625-.313 0-.625-.313-.625-.625 0-.375.312-.625.625-.625.375 0 .625.25.625.625zm-2.625 2.625c1.125 1.125.937 4.25-.25 4.25-.563 0-1.125-.563-1.313-1.25-.187-.688-.75-1.25-1.187-1.25-1.063 0-1.125-1.688-.063-2.063 1.313-.562 2-.5 2.813.313zm6.625-.375c1.25.5 1.312 2.125.125 2.125-.438 0-1 .563-1.188 1.25-.5 1.938-2.312 1.563-2.312-.5 0-2.563 1.312-3.688 3.375-2.875zM9.78 20.5c.25 1.125 1.063 2.75 1.813 3.563l1.437 1.5-1.812.687c-4.25 1.625-8.375-2.438-8.375-8.313v-3l3.25 1.75C8.78 18.125 9.469 18.813 9.78 20.5zM36.72 23c-1.5 2.875-4.625 4.25-7.25 3.25l-1.813-.688 1.438-1.5c.75-.812 1.562-2.437 1.812-3.562.313-1.625 1-2.375 3.5-3.75l3.125-1.688.188 2.813c.125 1.875-.188 3.625-1 5.125zm-12.938-.5v3.438h-6.875l-.187-2.75c-.313-4.188 0-4.5 3.75-4.313l3.312.188V22.5zm.188 7.25c.187 1.375-1.875 2.75-2.25 1.563-.313-.875-2.438-.875-2.75 0-.313 1-2.375-.063-2.375-1.25 0-1.688.687-2 4.062-1.813 2.625.188 3.125.375 3.313 1.5zm-1.125 6.813c.687.812.312.937-2.5.937-2.813 0-3.188-.125-2.5-.938.437-.5 1.562-.937 2.5-.937.937 0 2.062.438 2.5.938z"/><path d="M19.094 22.5c0 .813.437 1.25 1.25 1.25.812 0 1.25-.438 1.25-1.25 0-.813-.438-1.25-1.25-1.25-.813 0-1.25.438-1.25 1.25z"/></g><defs><clipPath id="clip0_20_110"><path fill="#fff" transform="translate(.344)" d="M0 0h40v40H0z"/></clipPath></defs></svg>