<svg width="41" height="41" fill="none" xmlns="http://www.w3.org/2000/svg"><path d="M9.113 6.75c0 .813.437 1.25 1.25 1.25.875 0 1.25.438 1.25 1.313 0 2 1.75 5.25 4.5 8.375l2.5 2.812-2.5 2.813c-2.75 3.125-4.5 6.375-4.5 8.375 0 .875-.375 1.312-1.25 1.312-.813 0-1.25.438-1.25 1.25 0 1.188.437 1.25 11.25 1.25 10.812 0 11.25-.062 11.25-1.25 0-.812-.438-1.25-1.25-1.25-.875 0-1.25-.437-1.25-1.312 0-2-1.75-5.25-4.5-8.375l-2.5-2.813 2.5-2.812c2.75-3.125 4.5-6.375 4.5-8.375 0-.875.375-1.313 1.25-1.313.812 0 1.25-.437 1.25-1.25 0-1.187-.438-1.25-11.25-1.25-10.813 0-11.25.063-11.25 1.25zm17.5 2.188c0 .5-.313 1.625-.75 2.5-.688 1.5-.938 1.562-5.5 1.562-4.563 0-4.813-.062-5.5-1.562-1.5-3.313-1.25-3.438 5.5-3.438 5.062 0 6.25.188 6.25.938zm-4.75 8.125c-.563.875-1.25 1.562-1.5 1.562s-.938-.687-1.5-1.562l-1-1.563h5l-1 1.563zm1.562 8.875c2.625 3.562 3.688 6.125 2.875 6.937-.25.25-.625.063-.75-.375-.75-2-4.375-6.687-5.187-6.687-.813 0-4.438 4.687-5.188 6.687-.5 1.375-1.25 0-.812-1.562.375-1.563 5.312-8.563 6-8.563.25 0 1.562 1.563 3.062 3.563zm-1.5 5.187l1 1.875H17.8l1-1.875c.563-1.062 1.25-1.875 1.563-1.875.312 0 1 .813 1.562 1.875z" fill="#698157"/></svg>