<svg width="41" height="41" fill="none" xmlns="http://www.w3.org/2000/svg"><path d="M18.222 6.875c-2.25 6.25-5.687 16-5.687 16.25 0 .188 1.25.688 2.812 1.063l2.813.687V35.5h4.312l3.125-8.125c1.75-4.5 3.188-8.25 3.188-8.375s-1.25-.562-2.813-1l-2.812-.812V5.5h-2.188c-1.75 0-2.312.313-2.75 1.375zm4.938 13l2.437.688-1.25 3.25c-.75 1.812-1.812 4.5-2.437 6.062l-1.188 2.813v-4.813l-.062-4.812-2.563-.688c-1.5-.437-2.375-1-2.187-1.437.125-.438 1.187-3.438 2.375-6.688l2.062-5.937.188 5.437.187 5.438 2.438.687zM7.66 7.563c-.563.625-.188 1.312 1.687 3.187 1.938 1.875 2.5 2.125 3.063 1.438.562-.625.187-1.313-1.688-3.188-1.937-1.875-2.5-2.125-3.062-1.437zm22.75 1.625c-1.875 1.937-2.125 2.5-1.438 3.062.625.563 1.313.188 3.188-1.687 1.875-1.938 2.125-2.5 1.437-3.063-.625-.562-1.312-.187-3.187 1.688zM9.16 30.438c-1.875 1.937-2.125 2.5-1.438 3.062.625.563 1.313.188 3.188-1.687 1.875-1.938 2.125-2.5 1.437-3.063-.625-.562-1.312-.187-3.187 1.688zm19.75-1.625c-.563.625-.188 1.312 1.687 3.187 1.938 1.875 2.5 2.125 3.063 1.438.562-.625.187-1.313-1.688-3.188-1.937-1.875-2.5-2.125-3.062-1.437z" fill="#698157"/></svg>