<svg width="40" height="41" fill="none" xmlns="http://www.w3.org/2000/svg"><path d="M6.25 20.5v16.25h27.5v-2c0-1.562-.188-1.812-.75-1.25-.5.5-4.188.75-12.5.75H8.75V6.75h22.5v5.813c0 5.062.188 6 1.25 7 1.25 1.125 1.25 1.062 1.25-7.063V4.25H6.25V20.5z" fill="#698157"/><path d="M13.125 11.438c-.438.5-.625 1.437-.5 2.062.188.625-.063 1.688-.5 2.313-.5.625-.875 1.375-.875 1.687 0 .75 2.125.625 3-.25.563-.562.938-.562 1.5 0 .875.875 3 1 3 .25 0-.312-.375-1.062-.875-1.687-.438-.625-.688-1.688-.5-2.313.313-1.375-.875-3-2.375-3-.625 0-1.438.438-1.875.938zm8.125.312c0 1.125.438 1.25 3.75 1.25 3.313 0 3.75-.125 3.75-1.25S28.312 10.5 25 10.5c-3.313 0-3.75.125-3.75 1.25zm0 5c0 1.125.438 1.25 3.75 1.25 3.313 0 3.75-.125 3.75-1.25S28.312 15.5 25 15.5c-3.313 0-3.75.125-3.75 1.25zm7.688 4.75c-.188.5.25 1.563 1.062 2.5l1.438 1.5h-5.063c-4.688 0-5.125.125-5.125 1.25S21.688 28 26.375 28h5.063l-1.375 1.438c-.813.937-1.188 1.875-.938 2.5.188.625.5 1.062.625 1.062.188 0 1.688-1.5 3.375-3.312l3.063-3.25-2.938-3C30.125 20.25 29.562 20 28.937 21.5zM11.25 24.25c0 1.125.438 1.25 3.75 1.25 3.313 0 3.75-.125 3.75-1.25S18.312 23 15 23c-3.313 0-3.75.125-3.75 1.25zm0 5c0 1.125.438 1.25 3.75 1.25 3.313 0 3.75-.125 3.75-1.25S18.312 28 15 28c-3.313 0-3.75.125-3.75 1.25z" fill="#698157"/></svg>