<svg width="30" height="18" fill="none" xmlns="http://www.w3.org/2000/svg"><g clip-path="url(#clip0_20_119)"><path d="M14.901 18c4.195 0 2.7-2.638 3.023-3.396-.005-.567-.01-1.112.01-1.442.84.384 1.586.944 2.188 1.64 2 2.004 2.51 3.198 4.127 3.198h2.973a1.98 1.98 0 001.679-.713 1.86 1.86 0 00.215-1.725c-.664-2.07-4.532-5.641-4.773-6.018.036-.069.094-.161.124-.21.764-1.002 3.678-5.338 4.107-7.074v-.009a1.72 1.72 0 00-.2-1.596A1.863 1.863 0 0026.804 0H23.83a2.21 2.21 0 00-1.296.362 2.168 2.168 0 00-.837 1.044c-.639 1.614-2.434 4.934-3.778 6.108a76.14 76.14 0 01.008-3.88C17.97 1.79 18.11 0 16.184 0H11.51c-1.206 0-2.36 1.308-1.11 2.86 1.092 1.361.393 2.12.63 5.896A22.026 22.026 0 017.32 1.76C6.996.847 6.507 0 5.126 0H2.152A1.72 1.72 0 00.775.427a1.68 1.68 0 00-.55 1.32C.226 4.2 5.699 18 14.902 18zM5.126 1.8c.262 0 .289 0 .483.549 1.181 3.46 3.836 8.579 5.775 8.579 1.455 0 1.455-1.482 1.455-2.04V4.446a4.226 4.226 0 00-.973-2.645l4.239.005c0 .02-.025 4.914.012 6.1 0 1.683 1.346 2.644 3.447.536a25.625 25.625 0 003.812-6.351c.09-.216.17-.29.454-.29h2.986v.011c-.271 1.26-2.955 5.276-3.854 6.522l-.04.06a1.786 1.786 0 00.055 2.34c.07.085.253.281.518.555.827.847 3.662 3.744 3.913 4.896-.167.027-.348.007-3.158.013-.598 0-1.066-.888-2.85-2.675-1.605-1.55-2.646-2.185-3.595-2.185-1.841 0-1.707 1.484-1.69 3.28.006 1.944-.006 1.33.007 1.453-.396.11-.809.153-1.22.126C7.233 16.2 2.243 4.115 2.05 1.805c.066-.007.981 0 3.077 0V1.8z" fill="#CAE3B7"/></g><defs><clipPath id="clip0_20_119"><path fill="#fff" transform="translate(.226)" d="M0 0h29v18H0z"/></clipPath></defs></svg>