<svg width="16" height="17" fill="none" xmlns="http://www.w3.org/2000/svg"><g clip-path="url(#clip0_4_19)" fill="#9FA79A"><path d="M13.2 3.001a7.747 7.747 0 00-10.917 0A7.6 7.6 0 000 8.428a7.643 7.643 0 00.943 3.632l-.922 4.19 4.239-.964c1.08.543 2.27.826 3.479.827a7.722 7.722 0 005.463-2.249A7.6 7.6 0 0013.2 3.001zm-5.455 11.9a6.54 6.54 0 01-3.108-.788l-.2-.109-2.824.646.612-2.782-.118-.2a6.466 6.466 0 01-.9-3.231 6.53 6.53 0 0111.136-4.579 6.432 6.432 0 011.932 4.576 6.51 6.51 0 01-6.533 6.469l.003-.002z"/><path d="M5.637 5.045h-.339a.652.652 0 00-.472.221 1.976 1.976 0 00-.62 1.472c.058.666.309 1.3.723 1.826a7.259 7.259 0 003.025 2.664c1.5.588 1.8.471 2.125.442a1.787 1.787 0 001.2-.839c.115-.264.15-.556.1-.839-.044-.074-.162-.118-.34-.206-.178-.088-1.045-.523-1.208-.582-.163-.059-.28-.088-.4.089s-.466.585-.569.7c-.103.115-.207.133-.384.044a4.9 4.9 0 01-1.418-.879 5.426 5.426 0 01-1-1.241c-.1-.177-.011-.272.078-.36.089-.088.187-.187.276-.29.071-.09.13-.188.173-.294a.324.324 0 00-.015-.309c-.044-.088-.384-.961-.542-1.31-.129-.294-.269-.304-.393-.309z"/></g><defs><clipPath id="clip0_4_19"><path fill="#fff" transform="translate(0 .75)" d="M0 0h15.485v15.5H0z"/></clipPath></defs></svg>