<svg xmlns="http://www.w3.org/2000/svg" width="556.618" height="296.57" viewBox="0 0 556.618 296.57">
  <g id="Untitled-3" transform="translate(-46.439 360.682)">
    <path id="Контур_1" data-name="Контур 1" d="M352.5-360c-80.3,6.9-150.5,24.5-204.7,51.4-55,27.4-88.2,61-99,100.4-2.9,10.6-3.2,35.1-.5,46.2C62.9-102,127.2-67.4,230-64.3a477.119,477.119,0,0,0,195.4-36.2c64.7-26.9,124.1-68.5,158-110.6,10.2-12.7,21.1-29.2,19.5-29.8a1.382,1.382,0,0,0-1.7.7c-.7,2.1-11.7,17.9-17.5,25.2-3.4,4.1-11.1,12.4-17.1,18.5-59,58.6-163.5,104.5-264.1,116-19.4,2.2-57.6,3-75.5,1.6C141.8-85.7,85.2-117.7,72.9-166c-2-8-1.8-28.8.4-37,7.2-26.7,24.5-51,52.2-73.3,45.8-36.9,111.2-62.2,184.5-71.4,20.9-2.6,76.9-2.6,95.5,0,81.6,11.5,135.1,48.8,139.2,97.2l.6,7.3,3.4.7c1.9.3,4.8,2.1,6.8,4.1L559-235l2.6-4.1c9-14.3,10.6-29.8,4.9-47.3-3.1-9.5-5.5-14.4-11-22.1-18.3-25.8-55.8-42.8-110.5-50.1C430.7-360.5,369.5-361.4,352.5-360Z" fill="#1e8d1e"/>
    <path id="Контур_2" data-name="Контур 2" d="M144.5-280.7c-.3.6-.4,18.1-.3,38.7l.3,37.5H159c13.1-.1,15-.3,19.3-2.4,5.9-2.9,9.3-7.2,10.8-13.8,2.9-12.5-3.4-24.1-15-27.3a72.963,72.963,0,0,0-12.8-1H152v-26h31v-7H164C149.6-282,144.8-281.7,144.5-280.7Zm30.2,40.4c5,2.3,7.3,6.6,7.3,13.3,0,11.1-5.1,15.2-20.2,15.8l-9.8.4V-242h9.6C168.5-242,172.2-241.5,174.7-240.3Z" fill="#1e8d1e"/>
    <path id="Контур_3" data-name="Контур 3" d="M242.4-237c-8.1,8.8-15.1,16-15.6,16-.4,0-.8-7-.8-15.5V-252h-3.5c-2,0-3.8.6-4.1,1.3-.2.7-.3,11.9-.2,25l.3,23.8,15.3-16.6c8.4-9.1,15.7-16.5,16.2-16.5.6,0,1,6.3,1,15.5V-204h7v-24.5c0-13.5-.2-24.5-.4-24.5C257.3-253,250.5-245.8,242.4-237Z" fill="#1e8d1e"/>
    <path id="Контур_4" data-name="Контур 4" d="M296.7-251.6c-4.6,1.7-6.4,3.2-8.3,6.7-2.3,4.6-1.8,5.9,2.1,5.9,2.8,0,3.5-.4,3.5-1.9,0-3.4,4.9-6.4,9.4-5.8,4.6.6,6.3,2.2,7.2,6.3.9,4.7-2,7.5-8.4,8.2-4.9.4-5.2.6-5.2,3.3,0,2.8.2,2.9,5,2.9,4.1,0,5.6.5,7.5,2.5,2.7,2.7,3.3,7.9,1.2,10.6-4.7,6.1-16.9,4.5-17.9-2.4-.2-1.7-1.1-2.3-3.5-2.5-3.1-.3-3.3-.1-3.3,2.8,0,6.7,10.5,13,19.3,11.6,8.7-1.4,13.7-6.6,13.7-14.3,0-3.3-.7-5-3.1-7.7l-3-3.5,2.1-2.8C323.2-242.9,310.6-256.6,296.7-251.6Z" fill="#1e8d1e"/>
    <path id="Контур_5" data-name="Контур 5" d="M426.4-251.1c-4.9,2.3-10.7,8.8-12.2,14a41.858,41.858,0,0,0-1.2,10.4c0,13.7,8.5,22.8,22.1,23.5,8.4.5,14.1-1.9,19.4-8.1l3.6-4.2L455-217c-3.1-1.4-3.3-1.4-5.2,1.3-2.6,3.6-8.8,6.7-13.4,6.7-7.8,0-15.1-6.3-16.1-14l-.6-4H458v-3.4C458-246.4,440.9-257.7,426.4-251.1Zm16.5,6.5c3.4,1.8,4.6,3.3,6.6,7.9L451-233H436c-14.2,0-15-.1-15-2,0-2.3,5.5-8.8,8.4-10C432.7-246.4,439.9-246.1,442.9-244.6Z" fill="#1e8d1e"/>
    <path id="Контур_6" data-name="Контур 6" d="M501-252.1a27.381,27.381,0,0,0-16.7,15,28.775,28.775,0,0,0-1.5,9.1c0,14.2,10.5,25,24.3,25,5.2,0,20.7-3.7,25-6,1.6-.9,1.6-1.2-.9-3.8l-2.7-2.8-4.6,2.2c-6.1,3-15.6,4.9-20.2,4-4.5-.8-10.5-5.8-12.3-10.3A24.763,24.763,0,0,1,490-228c0-10.6,7.3-18.2,17.4-18.4,4.4,0,6.3.6,10.5,3.2l5.2,3.2-.3-4.2c-.3-3.5-.8-4.5-3.6-6.1C515.6-252.4,505.1-253.5,501-252.1Z" fill="#1e8d1e"/>
    <path id="Контур_7" data-name="Контур 7" d="M347-228v24h6.9l.3-11.3.3-11.2h23l.3,11.2.3,11.3H385v-48h-6.9l-.3,9.7-.3,9.8h-23l-.3-9.8-.3-9.7H347Z" fill="#1e8d1e"/>
    <path id="Контур_8" data-name="Контур 8" d="M534.4-234.6c-3,3-3.4,4-3.4,8.5,0,4.4.5,5.6,3.4,8.9,3.1,3.3,3.9,3.7,8.4,3.7,6.3,0,10.1-2.6,12.1-8.2,1.8-5.1.9-8.7-3.4-13-2.9-2.9-3.9-3.3-8.5-3.3S537.4-237.6,534.4-234.6Z" fill="#f61818"/>
    <path id="Контур_9" data-name="Контур 9" d="M450.7-197c-11.3,2.8-19.7,12.9-19.7,23.6,0,21.1,25.2,33,42.4,19.9,8.2-6.2,11.5-21,6.8-30.1C474.9-193.8,461.9-199.7,450.7-197Zm13,11.7c9.2,4.3,9.8,19,1.1,24.3-3.8,2.3-11,2.6-14.8.7-6.7-3.4-9.3-14.7-4.9-20.9C449.1-186.7,457-188.5,463.7-185.3Z" fill="#1e8d1e"/>
    <path id="Контур_10" data-name="Контур 10" d="M144.2-172.8l.3,23.3,5.3.3,5.2.3V-169h20v20h11v-47H175v18H155v-18H144Z" fill="#1e8d1e"/>
    <path id="Контур_11" data-name="Контур 11" d="M196.4-172.5l-9.1,23.6,6-.3,6-.3,1.6-4.3,1.5-4.2h18.4l1.4,4.2,1.5,4.3,5.6.3c3.1.2,5.7-.1,5.7-.6s-3.8-11-8.4-23.3l-8.4-22.4-6.4-.3-6.4-.3Zm18.5-1.6c1.1,3.6,2.1,6.9,2.1,7.3s-2.5.8-5.6.8c-4.1,0-5.5-.3-5.2-1.3.3-.6,1.5-4.3,2.8-8,1.2-3.8,2.6-6.5,3-6C212.4-180.9,213.7-177.6,214.9-174.1Z" fill="#1e8d1e"/>
    <path id="Контур_12" data-name="Контур 12" d="M237.2-172.8l.3,23.3,8.3.3c9.9.3,18.8-1.1,22.2-3.7,6.6-4.9,5.9-15.9-1.3-19.4l-3.7-1.9,2.5-3a9.916,9.916,0,0,0,2.5-7.2c0-8.8-4.9-11.6-20.5-11.6H237Zm18.6-13.6c4.4,3,1.4,9.4-4.5,9.4-2.1,0-2.3-.4-2.3-5.5s.2-5.5,2.3-5.5A9.106,9.106,0,0,1,255.8-186.4Zm4.3,19.5c2.8,4.5-.8,8.9-7.3,8.9H249v-11.3l5.1.5C256.9-168.5,259.6-167.6,260.1-166.9Z" fill="#1e8d1e"/>
    <path id="Контур_13" data-name="Контур 13" d="M277-172.5V-149h5c6,0,5.4.5,18.4-16.3,5.4-7,10.2-12.7,10.7-12.7s1,6.4,1.1,14.2l.3,14.3,5.3.3,5.2.3V-196h-5.7l-5.8.1-10,13C286.8-163.8,288-164,288-181.3V-196H277Z" fill="#1e8d1e"/>
    <path id="Контур_14" data-name="Контур 14" d="M329.2-172.8l.3,23.3,5.3.3,5.2.3V-187h15v-9H329Z" fill="#1e8d1e"/>
    <path id="Контур_15" data-name="Контур 15" d="M362.6-173.5c-4.7,12.3-8.6,22.9-8.6,23.5,0,.7,1.9,1,5.3.8,5.1-.3,5.3-.4,7.2-4.6l1.9-4.2h18.2l1.4,4.2,1.5,4.3,5.8.3c3.1.2,5.7,0,5.7-.4,0-.6-3.1-9-15.2-41.2l-1.9-5.2H371.3Zm18.4-1.1c2.9,8.5,2.9,8.6-3.5,8.6-6.3,0-6.4-.1-3.5-8.4C377.3-184,377.7-184,381-174.6Z" fill="#1e8d1e"/>
    <path id="Контур_16" data-name="Контур 16" d="M399.4-194.6a11.4,11.4,0,0,0-.2,4.3c.3,2.6.6,2.8,5.6,3.1l5.2.3v38l5.3-.3,5.2-.3.3-18.8L421-187h10v-9H415.5C403-196,399.8-195.7,399.4-194.6Z" fill="#1e8d1e"/>
    <path id="Контур_17" data-name="Контур 17" d="M486.2-172.8l.3,23.3,5.3.3,5.2.3v-15.8l7-.6c8.5-.7,11.7-2.2,14.8-6.7,3.3-4.8,2.8-14.6-.8-18.6-4.1-4.4-7.9-5.4-20.5-5.4H486Zm21.6-13c.7.7,1.2,3.1,1.2,5.5,0,3.7-.4,4.5-2.6,5.3a18.382,18.382,0,0,1-6,1H497v-13h4.8C504.4-187,507.1-186.5,507.8-185.8Z" fill="#1e8d1e"/>
  </g>
</svg>
